<?xml version="1.0" encoding="UTF-8"?>
<svg id="Livello_1" xmlns="http://www.w3.org/2000/svg" version="1.1" viewBox="0 0 384.07 483.81">
  <!-- Generator: Adobe Illustrator 29.8.1, SVG Export Plug-In . SVG Version: 2.1.1 Build 2)  -->
  <defs>
    <style>
      .st0 {
        fill: #c93917;
      }

      .st1 {
        fill: #d4aa00;
      }
    </style>
  </defs>
  <g>
    <path class="st1" d="M96.99,243.3s10.13,37.34,64.54,45.87,85.35-40.01,64.54-94.95c-20.8-54.94-4.27-89.08-4.27-89.08,33.07-53.34,69.34-11.2,69.34-11.2-32.01,50.14-2.67,106.68,19.2,124.82,21.87,18.14,34.67,41.61,34.67,41.61,49.07,107.75-90.68,215.5-90.68,215.5,198.43-119.49,114.15-233.1,99.22-241.64-14.94-8.53-45.87-41.61-45.87-41.61-32.01-44.27-14.4-76.81-14.4-76.81-5.87,78.41,53.88,105.62,70.41,81.08,16.54-24.54-27.2-62.94-51.21-82.68-24-19.74,35.21-30.94,35.21-30.94-10.13-29.87-50.14-11.2-50.14-11.2-91.79-37.33-95.35,54.06-93.74,87.52.51,10.56-.36,21.14-2.67,31.46-25.35,113.27-104.16,52.25-104.16,52.25ZM344.52,154.8c30.05,36.93,3.19,45.13,2.65,45.29,20.86-12.53-1.66-43.94-2.65-45.29ZM301.34,74.72c1.37-.57,26.94-10.75,38.88,4.82-.39-.27-16.78-11.1-38.88-4.82Z"/>
    <path class="st1" d="M126.79,450.78c-3.48-1.5-142.01-62.18-72.48-214.41,0,0,26.67,94.95,106.15,79.48,0,0-74.15-11.74-94.95-128.02,0,0-138.66,195.72,61.27,262.95Z"/>
    <path class="st0" d="M155.13,450.8s187.22,6.93,107.22-181.35c.43,1.79,39.19,164.37-107.22,181.35Z"/>
    <path class="st0" d="M14.31,319.05C2.57,195.3,89.52,123.82,89.52,123.82-48.64,161.69,14.31,319.05,14.31,319.05Z"/>
    <path class="st0" d="M198.34,130.75c10.67-112.02,97.62-66.14,97.62-66.14,0,0,20.27-34.67,0-56.01-19.71-20.75-32.87-1.14-25.24,28.9.54,2.12.13,4.41-1.26,6.1-1.47,1.78-3.48,2.3-4.98-4.6-2.67-12.27,4.8-38.41-24-35.21-28.8,3.2-4.27,36.81-4.27,36.81,3.2,4.8-.53,21.34-8.53,5.33,0,0-6.4-24.54-20.27-22.4-13.87,2.13-28.8,25.07-10.67,35.21,14.9,8.33,15.76,16.29,6.13,15.03-4.03-.53-7.75-2.49-10.61-5.38-5.02-5.08-15.3-13.51-20.06-3.25-13.34,28.8,26.14,65.61,26.14,65.61Z"/>
  </g>
  <g>
    <path class="st0" d="M41.32,461.23h8.11c2.22,0,4.19.48,5.89,1.43,1.7.95,3.03,2.28,3.98,3.98.95,1.7,1.42,3.61,1.42,5.73s-.47,4.03-1.42,5.73c-.95,1.7-2.27,3.02-3.98,3.98-1.7.95-3.67,1.43-5.89,1.43h-8.11v-22.27ZM49.36,482.89c2.14,0,4.02-.45,5.65-1.35,1.62-.9,2.88-2.15,3.76-3.75.89-1.6,1.33-3.41,1.33-5.42s-.44-3.82-1.33-5.42c-.89-1.6-2.14-2.85-3.76-3.75-1.62-.9-3.5-1.35-5.65-1.35h-7.44v21.06h7.44Z"/>
    <path class="st0" d="M79.29,476.78h-13.1l-3,6.71h-.7l9.94-22.27h.61l9.94,22.27h-.7l-3-6.71ZM79.01,476.18l-6.27-14.09-6.27,14.09h12.55Z"/>
    <path class="st0" d="M109.21,472.11h3.76v8.88c-1.1.91-2.39,1.61-3.86,2.1-1.47.49-2.98.73-4.53.73-2.18,0-4.15-.49-5.91-1.48-1.75-.99-3.13-2.35-4.13-4.09-1-1.74-1.5-3.7-1.5-5.88s.5-4.15,1.5-5.89c1-1.74,2.38-3.1,4.15-4.09,1.76-.99,3.75-1.48,5.95-1.48,1.79,0,3.43.31,4.9.92,1.47.62,2.7,1.52,3.7,2.7l-2.51,2.55c-1.63-1.7-3.6-2.55-5.91-2.55-1.51,0-2.85.33-4.02.99-1.17.66-2.09,1.58-2.75,2.77-.66,1.19-.99,2.55-.99,4.07s.33,2.82.99,4.01c.66,1.19,1.58,2.12,2.75,2.8,1.17.68,2.5,1.02,3.99,1.02,1.67,0,3.14-.38,4.41-1.15v-6.94Z"/>
    <path class="st0" d="M118.21,461.23h3.98v22.27h-3.98v-22.27Z"/>
    <path class="st0" d="M130.26,481.22c-1.65-1.73-2.48-4.2-2.48-7.43v-12.57h3.98v12.41c0,4.37,1.82,6.55,5.45,6.55s5.42-2.18,5.42-6.55v-12.41h3.92v12.57c0,3.22-.82,5.7-2.46,7.43-1.64,1.73-3.94,2.59-6.9,2.59s-5.26-.86-6.92-2.59Z"/>
    <path class="st0" d="M153.96,483.08c-1.54-.49-2.76-1.13-3.66-1.94l1.38-3.21c.88.72,1.95,1.31,3.23,1.77s2.56.68,3.84.68c1.59,0,2.78-.27,3.56-.8.78-.53,1.18-1.23,1.18-2.1,0-.64-.22-1.16-.66-1.57-.44-.41-.99-.74-1.67-.97-.67-.23-1.59-.5-2.75-.8-1.63-.4-2.95-.81-3.96-1.21-1.01-.4-1.88-1.03-2.6-1.89-.72-.86-1.09-2.02-1.09-3.48,0-1.23.32-2.35.96-3.36.64-1.01,1.61-1.81,2.91-2.4,1.3-.59,2.88-.89,4.76-.89,1.31,0,2.59.17,3.86.51,1.26.34,2.36.83,3.27,1.46l-1.25,3.21c-.94-.57-1.92-1.01-2.94-1.3-1.02-.3-2.01-.45-2.97-.45-1.57,0-2.74.28-3.5.83s-1.15,1.28-1.15,2.19c0,.64.22,1.16.66,1.56.44.4.99.72,1.67.95.67.23,1.59.5,2.75.8,1.59.38,2.9.78,3.92,1.19,1.02.41,1.89,1.05,2.62,1.89.72.85,1.09,1.99,1.09,3.44,0,1.23-.32,2.34-.96,3.34-.64,1-1.62,1.79-2.92,2.39-1.31.59-2.9.89-4.77.89-1.65,0-3.25-.24-4.79-.73Z"/>
    <path class="st0" d="M187.42,480.03v3.47h-16.06v-22.27h15.64v3.47h-11.66v5.79h10.34v3.4h-10.34v6.14h12.09Z"/>
    <path class="st0" d="M205.52,462.18c1.38.64,2.43,1.55,3.17,2.74.73,1.19,1.1,2.6,1.1,4.23s-.37,3.02-1.1,4.22c-.73,1.2-1.79,2.12-3.17,2.75-1.38.64-2.99.95-4.85.95h-4.83v6.43h-3.98v-22.27h8.81c1.86,0,3.47.32,4.85.95ZM204.43,472.43c.9-.76,1.35-1.86,1.35-3.28s-.45-2.51-1.35-3.28c-.9-.76-2.21-1.15-3.95-1.15h-4.65v8.84h4.65c1.73,0,3.05-.38,3.95-1.15Z"/>
    <path class="st0" d="M227.43,462.18c1.38.64,2.43,1.55,3.17,2.74.73,1.19,1.1,2.6,1.1,4.23s-.37,3.02-1.1,4.22c-.73,1.2-1.79,2.12-3.17,2.75-1.38.64-2.99.95-4.85.95h-4.83v6.43h-3.98v-22.27h8.81c1.86,0,3.47.32,4.85.95ZM226.34,472.43c.9-.76,1.35-1.86,1.35-3.28s-.45-2.51-1.35-3.28c-.9-.76-2.21-1.15-3.95-1.15h-4.65v8.84h4.65c1.73,0,3.05-.38,3.95-1.15Z"/>
    <path class="st0" d="M251.74,480.03v3.47h-16.06v-22.27h15.64v3.47h-11.66v5.79h10.34v3.4h-10.34v6.14h12.09Z"/>
  </g>
  <g>
    <path class="st0" d="M73.83,343.24c1.92,1.6,2.88,3.82,2.88,6.66s-.96,5.02-2.88,6.62c-1.92,1.6-4.57,2.4-7.95,2.4h-7.68v8.79h-1.96v-26.87h9.64c3.38,0,6.03.8,7.95,2.4ZM72.45,355.28c1.51-1.25,2.27-3.04,2.27-5.37s-.76-4.13-2.27-5.39-3.7-1.9-6.56-1.9h-7.68v14.55h7.68c2.87,0,5.05-.63,6.56-1.88Z"/>
    <path class="st0" d="M87.96,366.12c-2.12-1.19-3.79-2.82-5.01-4.9-1.22-2.07-1.82-4.39-1.82-6.95s.61-4.88,1.82-6.95c1.22-2.07,2.88-3.7,5.01-4.89,2.12-1.19,4.5-1.79,7.14-1.79s5.02.59,7.14,1.77c2.12,1.18,3.79,2.8,5.01,4.88,1.22,2.07,1.82,4.4,1.82,6.99s-.61,4.91-1.82,6.99c-1.22,2.07-2.89,3.7-5.01,4.88-2.12,1.18-4.5,1.77-7.14,1.77s-5.02-.59-7.14-1.78ZM101.21,364.57c1.82-1.02,3.25-2.44,4.3-4.24,1.05-1.8,1.57-3.82,1.57-6.05s-.52-4.24-1.57-6.05c-1.05-1.8-2.48-3.22-4.3-4.24-1.82-1.02-3.85-1.54-6.1-1.54s-4.29.51-6.12,1.54c-1.83,1.02-3.27,2.44-4.32,4.24-1.05,1.8-1.57,3.82-1.57,6.05s.52,4.24,1.57,6.05c1.05,1.8,2.49,3.22,4.32,4.24s3.87,1.54,6.12,1.54,4.29-.51,6.1-1.54Z"/>
    <path class="st0" d="M115.87,340.84h1.96v25.11h15.47v1.77h-17.43v-26.87Z"/>
    <path class="st0" d="M138.33,340.84h1.96v25.11h15.47v1.77h-17.43v-26.87Z"/>
    <path class="st0" d="M179.33,365.95v1.77h-18.54v-26.87h17.97v1.77h-16.01v10.6h14.32v1.73h-14.32v11.02h16.59Z"/>
    <path class="st0" d="M205.13,367.72l-6.41-8.98c-.95.13-1.82.19-2.61.19h-7.68v8.79h-1.96v-26.87h9.64c3.38,0,6.03.8,7.95,2.4,1.92,1.6,2.88,3.82,2.88,6.66,0,2.13-.54,3.91-1.63,5.36-1.09,1.45-2.64,2.46-4.67,3.05l6.72,9.41h-2.23ZM196.11,357.2c2.87,0,5.05-.63,6.56-1.9,1.51-1.27,2.27-3.06,2.27-5.39s-.76-4.13-2.27-5.39-3.7-1.9-6.56-1.9h-7.68v14.59h7.68Z"/>
    <path class="st0" d="M214.11,340.84h1.96v26.87h-1.96v-26.87Z"/>
    <path class="st0" d="M242.06,360.15h-15.59l-3.42,7.56h-2.11l12.36-26.87h1.96l12.36,26.87h-2.11l-3.46-7.56ZM241.33,358.5l-7.06-15.51-7.03,15.51h14.09Z"/>
  </g>
  <g>
    <path class="st1" d="M94.27,385.7c-1.73-1.65-4.3-2.57-6.55-2.57-5.52,0-8.86,4.19-8.86,9.49,0,4.23,2.46,8.61,8.86,8.61,2.02,0,3.79-.44,5.81-2.06v-4.56h-6.58v-4.34h11.03v10.85c-2.54,2.9-5.74,4.64-10.26,4.64-9.67,0-13.61-6.36-13.61-13.13,0-7.24,4.52-13.94,13.61-13.94,3.46,0,6.91,1.33,9.56,3.94l-3.02,3.09Z"/>
    <path class="st1" d="M119.66,396.11c0,5.22-3.57,9.45-9.45,9.45s-9.42-4.23-9.42-9.45,3.6-9.45,9.38-9.45,9.49,4.26,9.49,9.45ZM105.28,396.11c0,2.76,1.65,5.33,4.93,5.33s4.93-2.58,4.93-5.33-1.91-5.37-4.93-5.37c-3.24,0-4.93,2.65-4.93,5.37Z"/>
    <path class="st1" d="M127.36,387.02v9.49c0,2.76,1.51,4.85,4.38,4.85s4.63-2.32,4.63-5.08v-9.27h4.45v18.17h-4.01l-.29-2.46c-1.88,1.84-3.6,2.72-6.14,2.72-4.34,0-7.5-3.27-7.5-8.9v-9.53h4.49Z"/>
    <path class="st1" d="M148.96,387.02l.33,2.1c1.4-2.24,3.27-2.57,5.11-2.57s3.68.73,4.67,1.73l-2.02,3.9c-.92-.77-1.77-1.18-3.24-1.18-2.35,0-4.52,1.25-4.52,4.6v9.56h-4.49v-18.13h4.16Z"/>
    <path class="st1" d="M172.84,405.16v-9.71c0-2.39-1.25-4.56-3.72-4.56s-3.86,2.17-3.86,4.56v9.71h-4.49v-18.17h4.16l.33,2.21c.96-1.84,3.05-2.5,4.78-2.5,2.17,0,4.34.88,5.37,3.38,1.62-2.58,3.72-3.31,6.07-3.31,5.15,0,7.68,3.17,7.68,8.61v9.78h-4.49v-9.78c0-2.39-.99-4.41-3.42-4.41s-3.94,2.1-3.94,4.49v9.71h-4.49Z"/>
    <path class="st1" d="M197.57,397.69c.3,2.24,2.25,3.86,5.41,3.86,1.65,0,3.82-.62,4.85-1.69l2.87,2.83c-1.91,1.99-5.04,2.94-7.8,2.94-6.25,0-9.97-3.86-9.97-9.67s3.75-9.49,9.64-9.49,9.86,3.75,9.16,11.22h-14.16ZM207.43,393.98c-.29-2.35-2.13-3.53-4.71-3.53-2.43,0-4.41,1.18-5.08,3.53h9.78Z"/>
    <path class="st1" d="M220.76,381.91v5.15h5v3.86h-5.04v7.83c0,1.73.96,2.58,2.35,2.58.7,0,1.51-.22,2.17-.55l1.25,3.82c-1.29.52-2.35.73-3.72.77-3.94.15-6.51-2.1-6.51-6.62v-7.83h-3.38v-3.86h3.38v-4.67l4.49-.48Z"/>
  </g>
</svg>